<?xml version="1.0" encoding="UTF-8"?>
<svg version="1.1" xmlns="http://www.w3.org/2000/svg" width="48" height="48">
<path d="M0 0 C11.88 0 23.76 0 36 0 C36 11.88 36 23.76 36 36 C24.12 36 12.24 36 0 36 C0 24.12 0 12.24 0 0 Z " fill="#125A9A" transform="translate(6,6)"/>
<path d="M0 0 C3.625 0.375 3.625 0.375 7 1 C7 1.99 7 2.98 7 4 C5.35 3.67 3.7 3.34 2 3 C2 3.99 2 4.98 2 6 C2.78375 6.28875 3.5675 6.5775 4.375 6.875 C7 8 7 8 9 10 C8.75 13.0625 8.75 13.0625 8 16 C5.17116253 17.41441874 3.12623255 17.31900332 0 17 C-1.875 15 -1.875 15 -3 13 C0.62326739 11.7922442 1.64146369 12.45688872 5 14 C4.26023529 10.7074288 4.26023529 10.7074288 0.9375 9.125 C-2 7 -2 7 -2.5 4.375 C-2 2 -2 2 0 0 Z " fill="#EBF0F5" transform="translate(30,22)"/>
<path d="M0 0 C4.29 0 8.58 0 13 0 C13 0.99 13 1.98 13 3 C11.35 3 9.7 3 8 3 C8 7.62 8 12.24 8 17 C7.01 17 6.02 17 5 17 C5 12.38 5 7.76 5 3 C3.35 3 1.7 3 0 3 C0 2.01 0 1.02 0 0 Z " fill="#FEFEFE" transform="translate(14,22)"/>
</svg>
