<?xml version="1.0" encoding="UTF-8"?>
<svg version="1.1" xmlns="http://www.w3.org/2000/svg" width="48" height="48">
<path d="M0 0 C2.6529284 1.60289377 4.744465 3.31254405 6.96484375 5.46875 C9.52245401 7.393094 10.86552189 7.36225108 14 7 C14.99 6.67 15.98 6.34 17 6 C17.33 5.34 17.66 4.68 18 4 C17.68031467 7.51653861 17.37757864 9.53431968 15.125 12.3125 C11.68293488 15.04590466 8.45134475 15.34077415 4.12109375 15.28515625 C-0.63746019 14.64542432 -4.11183828 11.78242818 -7.625 8.6875 C-9.87201758 6.72321317 -9.87201758 6.72321317 -12.625 7.125 C-15.21287957 7.97374676 -15.21287957 7.97374676 -18 10 C-17.76065097 6.48954758 -17.34119266 4.44708004 -15.1875 1.625 C-10.17631713 -0.92972068 -5.4940193 -1.08204954 0 0 Z " fill="#00ACC1" transform="translate(18,24)"/>
<path d="M0 0 C2.887287 1.61106824 5.23257661 3.36495216 7.72265625 5.55859375 C9.96967383 7.52288058 9.96967383 7.52288058 12.72265625 7.12109375 C15.31053582 6.27234699 15.31053582 6.27234699 18.09765625 4.24609375 C17.85830722 7.75654617 17.43884891 9.79901371 15.28515625 12.62109375 C10.27397338 15.17581443 5.59167555 15.32814329 0.09765625 14.24609375 C-2.55527215 12.64319998 -4.64680875 10.9335497 -6.8671875 8.77734375 C-9.42479776 6.85299975 -10.76786564 6.88384267 -13.90234375 7.24609375 C-17.02019488 7.89254036 -17.02019488 7.89254036 -17.90234375 10.24609375 C-17.58265842 6.72955514 -17.27992239 4.71177407 -15.02734375 1.93359375 C-10.77440226 -1.44374214 -5.02548255 -1.99161834 0 0 Z " fill="#00ABC1" transform="translate(29.90234375,9.75390625)"/>
</svg>
